<?xml version="1.0" standalone="no"?>
<!DOCTYPE svg PUBLIC "-//W3C//DTD SVG 20010904//EN"
 "http://www.w3.org/TR/2001/REC-SVG-20010904/DTD/svg10.dtd">
<svg version="1.0" xmlns="http://www.w3.org/2000/svg"
 width="1300.000000pt" height="1300.000000pt" viewBox="0 0 1300.000000 1300.000000"
 preserveAspectRatio="xMidYMid meet">

<g transform="translate(0.000000,1300.000000) scale(0.100000,-0.100000)"
fill="#000000" stroke="none">
<path d="M8318 10928 c-251 -420 -358 -609 -358 -633 0 -11 7 -15 22 -13 18 2
73 88 261 402 131 219 237 406 235 415 -2 9 -13 17 -24 19 -17 2 -40 -29 -136
-190z"/>
<path d="M5845 11080 c-15 -25 232 -1054 352 -1465 19 -66 43 -150 54 -187 16
-54 24 -68 39 -68 31 0 25 45 -30 240 -28 96 -52 184 -55 195 -3 11 -43 173
-90 360 -89 359 -163 668 -196 824 -11 52 -22 98 -25 103 -7 11 -42 10 -49 -2z"/>
<path d="M7016 10974 c-95 -30 -193 -158 -238 -314 -21 -75 -44 -220 -53 -335
-3 -44 -8 -91 -10 -105 -3 -14 -9 -162 -14 -330 -10 -315 -2 -805 20 -1285 6
-152 9 -317 4 -378 l-7 -108 -226 -312 c-124 -172 -245 -340 -269 -374 -25
-35 -48 -65 -53 -68 -5 -3 -16 5 -23 17 -180 287 -336 532 -439 687 l-129 193
56 59 c35 36 68 85 87 126 53 118 39 258 -49 483 -134 343 -416 818 -577 973
-82 79 -130 102 -206 102 -69 -1 -93 -10 -215 -84 -259 -156 -557 -408 -661
-561 -38 -56 -45 -76 -46 -140 0 -68 29 -122 192 -354 153 -218 326 -426 426
-512 190 -163 316 -222 514 -240 126 -11 186 -6 253 22 33 14 66 23 73 20 8
-3 142 -198 298 -433 156 -235 296 -441 310 -458 14 -16 26 -38 26 -47 0 -9
-22 -43 -48 -75 -47 -57 -51 -58 -128 -75 -114 -24 -237 -52 -417 -92 -181
-41 -194 -42 -201 -18 -6 18 -57 306 -76 426 -25 161 -97 219 -305 247 -152
20 -437 -1 -765 -58 -576 -98 -840 -126 -1225 -127 -282 0 -414 12 -603 54
-83 18 -121 16 -136 -9 -9 -14 11 -135 36 -211 22 -71 134 -303 170 -353 13
-18 23 -35 23 -39 0 -17 148 -233 237 -347 54 -69 98 -133 98 -143 0 -10 -32
-68 -70 -129 -39 -61 -67 -115 -64 -121 4 -7 2 -8 -4 -4 -7 4 -16 -3 -21 -17
-6 -14 -14 -28 -20 -32 -6 -3 -41 -50 -78 -103 -121 -173 -258 -338 -446 -536
-42 -45 -46 -65 -18 -90 33 -30 165 -66 269 -72 224 -15 787 47 1064 117 117
29 115 30 122 -48 27 -270 70 -513 108 -608 31 -77 93 -139 162 -161 49 -15
64 -15 222 0 164 16 357 48 518 87 44 10 82 16 85 14 2 -3 -10 -24 -27 -48
-17 -23 -71 -96 -119 -162 -48 -66 -117 -158 -153 -205 -137 -178 -194 -292
-194 -390 0 -82 14 -130 59 -204 20 -33 33 -66 30 -75 -3 -9 -46 -50 -96 -91
-112 -94 -346 -327 -399 -399 -120 -160 -181 -393 -146 -553 59 -266 299 -324
533 -130 101 84 167 190 251 399 74 182 229 478 256 489 7 3 25 0 39 -5 15 -6
55 -13 90 -17 92 -9 169 15 219 69 21 23 58 62 82 87 40 40 1102 1628 1128
1686 8 16 27 29 57 38 114 35 575 178 586 182 9 4 11 -156 7 -698 -2 -387 -8
-707 -13 -712 -5 -5 -38 -4 -81 3 -192 33 -451 23 -637 -24 -215 -54 -337
-115 -493 -245 -77 -65 -138 -192 -138 -290 0 -56 46 -275 80 -379 56 -173
103 -255 205 -358 72 -73 105 -99 165 -127 160 -76 325 -95 489 -56 148 36
271 118 370 247 50 65 128 241 165 371 68 236 66 204 66 1288 0 538 -3 989 -6
1000 -3 13 0 25 8 30 18 12 119 44 139 44 8 0 32 -28 53 -62 104 -175 377
-751 555 -1171 137 -323 285 -616 373 -742 16 -22 36 -51 45 -65 56 -85 181
-178 263 -196 48 -10 108 -6 140 11 45 23 98 91 114 146 20 65 20 83 1 146
-30 100 -123 227 -500 679 -33 39 -105 129 -160 199 -55 70 -133 168 -173 219
-106 132 -211 292 -287 441 -37 72 -80 150 -95 175 -49 79 -150 261 -150 270
0 12 727 247 735 238 2 -2 0 -33 -5 -68 -21 -149 -32 -454 -22 -629 10 -161
13 -179 39 -230 38 -74 97 -115 204 -143 195 -49 436 -4 1259 232 74 21 184
52 243 69 373 105 822 171 1163 171 136 0 184 9 184 34 0 70 -134 250 -290
391 -36 32 -139 129 -230 215 -91 85 -189 178 -217 204 -29 27 -53 55 -53 62
0 7 17 41 38 76 21 35 78 130 127 211 74 126 156 249 306 462 26 36 123 163
283 370 68 87 67 91 -24 118 -250 74 -716 30 -1218 -117 -58 -17 -84 -21 -87
-13 -2 7 -9 77 -15 156 -13 172 -52 361 -85 413 -41 63 -199 118 -339 118
-119 0 -397 -63 -1126 -256 -378 -100 -540 -141 -540 -138 0 8 47 77 141 211
52 73 130 184 174 248 44 63 118 168 164 232 45 65 98 141 116 168 18 28 56
82 84 120 28 39 66 93 85 120 19 28 56 79 81 115 25 36 56 81 69 100 14 19 99
141 191 270 l166 235 -4 85 c-3 75 -7 93 -37 145 -18 33 -41 70 -51 83 -9 12
-15 31 -12 42 9 32 120 147 227 233 195 156 391 377 470 527 74 142 66 256
-25 333 -58 50 -134 77 -217 77 -134 0 -234 -42 -333 -141 -88 -88 -119 -139
-249 -413 -73 -154 -117 -230 -168 -284 -33 -35 -50 -39 -90 -18 -74 37 -226
50 -278 23 -37 -19 -65 -52 -159 -181 -38 -54 -84 -116 -101 -139 -17 -23
-119 -163 -226 -312 -107 -148 -268 -371 -358 -495 -89 -124 -179 -247 -198
-275 -72 -101 -143 -195 -148 -195 -3 0 -4 53 -2 118 1 64 -3 351 -11 637 -22
821 6 1321 84 1533 31 82 91 152 131 152 45 0 82 -36 99 -95 9 -29 22 -56 30
-58 33 -13 85 78 85 147 0 41 -38 121 -68 143 -61 44 -138 54 -226 27z m234
-148 c0 -2 -8 -10 -17 -17 -16 -13 -17 -12 -4 4 13 16 21 21 21 13z m2037
-224 c35 -19 37 -46 6 -114 -55 -124 -241 -332 -434 -488 -110 -89 -152 -129
-209 -198 l-35 -43 -34 35 -34 35 33 33 c52 53 131 180 220 358 149 295 223
379 355 400 45 6 99 -1 132 -18z m-2437 -176 c0 -2 -8 -10 -17 -17 -16 -13
-17 -12 -4 4 13 16 21 21 21 13z m-1865 -668 c167 -171 464 -698 553 -979 16
-52 35 -129 42 -172 12 -73 12 -80 -7 -105 -31 -43 -179 -157 -253 -196 -59
-31 -77 -36 -136 -36 -132 0 -325 75 -437 170 -155 131 -617 716 -617 780 0
53 130 184 348 351 170 130 380 259 420 259 9 0 48 -33 87 -72z m3338 20 c82
-44 215 -178 289 -293 76 -117 78 -126 40 -180 -16 -23 -53 -76 -81 -116 -28
-41 -89 -128 -136 -194 -46 -66 -106 -151 -132 -190 -26 -38 -86 -124 -134
-190 -47 -66 -110 -155 -140 -199 -30 -43 -70 -102 -89 -130 -61 -87 -351
-499 -382 -541 -17 -22 -65 -92 -108 -155 -94 -139 -129 -184 -155 -201 -20
-12 -95 -30 -95 -22 0 2 66 102 147 221 80 119 207 307 281 417 75 110 154
227 177 260 23 33 77 112 120 175 85 126 87 128 358 502 103 142 187 263 187
271 0 14 -19 37 -30 37 -8 0 -128 -163 -352 -475 -261 -366 -313 -442 -680
-993 -175 -262 -297 -436 -311 -442 -25 -11 -128 -35 -362 -85 -88 -19 -187
-41 -220 -49 -132 -32 -256 -57 -266 -54 -5 2 12 33 38 68 42 56 339 466 623
860 47 65 123 170 170 235 47 64 117 161 155 214 39 53 104 144 145 200 41 57
91 125 110 152 19 27 107 148 195 270 88 121 169 233 180 249 72 101 253 352
278 384 29 37 32 38 75 32 24 -3 72 -21 105 -38z m1041 -2122 c88 -21 103 -41
121 -161 8 -55 19 -201 25 -325 5 -123 17 -297 25 -385 10 -102 15 -239 13
-380 l-3 -220 -30 3 c-283 24 -683 -30 -1210 -164 -139 -36 -427 -116 -475
-134 -14 -4 -77 -24 -140 -44 -357 -109 -1669 -518 -1865 -581 -529 -169 -728
-231 -990 -305 -417 -119 -837 -210 -967 -210 -71 0 -80 2 -108 28 -83 76
-148 596 -169 1357 -5 165 -7 302 -4 305 3 3 59 4 126 2 160 -4 280 14 585 87
211 52 707 164 1197 271 72 16 216 47 320 70 270 59 498 109 715 155 528 114
1173 270 1650 400 353 96 700 183 955 238 45 10 174 6 229 -7z m-4415 -217
c25 -8 46 -20 48 -26 3 -7 -24 -30 -58 -52 -68 -43 -240 -102 -629 -217 -314
-92 -390 -119 -506 -175 -173 -84 -280 -178 -336 -296 -43 -91 -51 -206 -45
-664 l5 -387 -77 -21 c-129 -36 -299 -69 -471 -90 -221 -28 -469 -51 -547 -51
l-63 0 68 79 c176 204 449 607 535 789 37 79 34 134 -9 192 -16 20 -71 92
-122 160 -143 188 -273 392 -361 567 -47 94 -47 94 63 67 52 -12 134 -27 183
-33 111 -14 475 -14 653 -1 240 18 618 69 850 116 208 41 433 63 605 60 109
-2 186 -8 214 -17z m121 -359 c11 -74 23 -142 25 -150 9 -30 -15 -41 -151 -70
-170 -36 -316 -69 -674 -154 -151 -36 -304 -70 -340 -77 -71 -13 -264 -18
-275 -7 -11 11 24 55 78 96 128 99 250 146 757 293 227 66 418 132 485 168 39
20 71 37 72 36 1 0 11 -61 23 -135z m5720 75 c0 -3 -44 -58 -98 -123 -179
-213 -317 -413 -444 -642 -14 -25 -62 -104 -106 -176 -94 -149 -100 -179 -54
-231 29 -33 81 -82 506 -478 6 -6 56 -50 111 -99 55 -50 101 -92 102 -95 2 -3
-79 -6 -180 -6 -341 -1 -615 -52 -1272 -240 -425 -122 -541 -153 -715 -189
-214 -45 -387 -46 -452 -3 -29 20 -33 29 -36 72 -5 78 5 110 55 172 55 70 109
111 217 169 104 55 180 84 461 179 442 149 599 231 717 373 46 55 60 81 36 66
-7 -4 -8 -3 -4 5 4 6 11 9 16 6 12 -8 46 64 61 131 18 77 18 632 1 792 -9 79
-9 118 -2 132 22 42 446 135 770 170 166 18 310 25 310 15z m-1352 -1141 c71
-9 68 -26 -14 -103 -99 -93 -305 -186 -659 -298 -231 -73 -456 -174 -558 -251
-94 -71 -88 -71 -82 -10 30 306 49 436 63 450 11 11 323 89 507 127 373 78
590 103 743 85z m132 -178 c0 -2 -8 -10 -17 -17 -16 -13 -17 -12 -4 4 13 16
21 21 21 13z m-3730 -762 c0 -4 -100 -158 -223 -343 -123 -185 -331 -499 -463
-698 -131 -199 -242 -361 -245 -360 -3 1 -40 43 -82 93 -41 51 -102 112 -134
136 -88 68 -212 137 -292 162 -39 12 -73 25 -76 28 -6 6 73 115 129 178 17 19
104 132 193 252 89 119 176 226 193 238 25 18 195 77 315 110 63 18 136 40
309 94 99 30 182 53 185 51 5 -6 -352 -542 -550 -825 -184 -262 -181 -257
-177 -282 6 -40 27 -30 72 34 25 35 66 92 91 128 118 166 257 369 455 664 190
282 220 322 250 333 41 14 50 15 50 7z m2132 -972 c24 -31 88 -110 143 -175
229 -272 335 -423 335 -479 0 -10 -9 -27 -21 -39 l-20 -20 -47 27 c-70 40 -87
58 -167 179 -76 114 -227 404 -271 522 -29 76 -19 73 48 -15z m-3591 -207
c126 -53 250 -156 348 -290 31 -41 51 -77 49 -90 -4 -27 -62 -41 -120 -29
l-43 9 -6 69 c-5 65 -8 72 -46 107 -53 49 -133 74 -212 65 -31 -3 -61 -3 -67
2 -30 20 -78 149 -67 179 8 22 84 11 164 -22z m2229 -95 c99 -16 120 -21 120
-30 0 -15 -94 -112 -144 -150 -164 -120 -435 -219 -689 -250 -162 -21 -307 2
-322 51 -18 55 104 182 238 248 145 72 238 98 477 134 54 9 258 6 320 -3z
m-969 -137 c13 -16 12 -17 -3 -4 -10 7 -18 15 -18 17 0 8 8 3 21 -13z m-1246
-89 c34 -14 37 -18 31 -46 -7 -36 -55 -131 -141 -283 -35 -60 -88 -171 -119
-245 -93 -224 -152 -334 -215 -396 -70 -69 -147 -109 -195 -100 -105 20 -112
235 -14 427 45 87 168 226 352 398 56 52 137 132 181 177 44 46 81 83 81 83 1
1 18 -6 39 -15z m2353 -151 c-10 -99 -33 -196 -85 -358 -42 -130 -53 -153
-105 -223 -21 -29 -36 -57 -32 -64 4 -7 3 -8 -5 -4 -7 5 -27 -6 -50 -27 -130
-117 -382 -143 -553 -56 -50 26 -141 115 -186 183 -63 93 -132 252 -132 302 0
8 53 13 198 17 210 5 304 20 467 73 109 36 281 119 389 187 50 31 93 57 96 57
3 0 2 -39 -2 -87z m-707 -160 c13 -16 12 -17 -3 -4 -10 7 -18 15 -18 17 0 8 8
3 21 -13z m560 -560 c13 -16 12 -17 -3 -4 -10 7 -18 15 -18 17 0 8 8 3 21 -13z"/>
<path d="M9160 10454 c-17 -31 -60 -86 -96 -122 -65 -68 -73 -85 -38 -90 24
-4 124 91 172 162 37 57 43 106 13 106 -13 0 -30 -19 -51 -56z"/>
<path d="M8922 10211 c-8 -4 -12 -19 -10 -32 2 -18 9 -24 28 -24 21 0 25 5 25
30 0 31 -19 42 -43 26z"/>
<path d="M4802 9624 c-30 -21 -28 -45 12 -97 18 -24 77 -110 130 -190 214
-326 284 -435 317 -489 41 -68 65 -81 92 -47 26 32 19 110 -17 199 -55 135
-377 575 -451 617 -48 27 -54 28 -83 7z"/>
<path d="M4580 9483 c-53 -20 -41 -70 43 -176 129 -163 249 -329 334 -462 125
-197 129 -202 164 -209 40 -8 74 13 83 49 19 76 -70 220 -360 584 -116 145
-155 187 -188 202 -43 20 -52 21 -76 12z"/>
<path d="M4370 9300 c-11 -11 -20 -29 -20 -40 0 -85 151 -316 387 -592 84 -97
110 -121 172 -153 49 -25 81 -9 81 41 0 28 -10 48 -42 87 -24 28 -50 60 -58
72 -35 52 -428 572 -444 588 -23 23 -51 22 -76 -3z"/>
<path d="M5456 8544 c-9 -22 17 -49 39 -40 10 3 15 15 13 28 -4 29 -42 37 -52
12z"/>
<path d="M5310 8442 c-64 -36 -67 -37 -165 -35 -55 1 -116 3 -135 5 -30 2 -35
0 -38 -19 -3 -18 4 -24 40 -34 24 -6 84 -12 133 -13 83 -1 96 2 162 33 79 37
109 62 100 86 -9 22 -24 18 -97 -23z"/>
<path d="M8526 9378 c-21 -30 -20 -45 4 -58 30 -16 60 4 60 39 0 26 -15 41
-40 41 -5 0 -16 -10 -24 -22z"/>
<path d="M8710 7411 c-111 -36 -181 -84 -229 -159 -41 -64 -43 -144 -7 -207
38 -64 105 -95 396 -181 68 -20 120 -57 120 -87 0 -63 -78 -131 -174 -151
-109 -23 -178 11 -222 110 -25 58 -42 69 -73 48 -33 -23 -45 -81 -32 -145 17
-76 46 -115 116 -152 55 -29 68 -32 155 -32 92 0 97 1 175 42 165 88 241 187
233 303 -9 127 -112 192 -444 279 -41 11 -94 51 -94 70 0 21 72 90 115 111 55
27 148 30 192 7 18 -9 46 -38 63 -63 40 -57 67 -57 89 -1 12 31 12 44 1 77
-18 54 -66 109 -114 131 -55 25 -190 25 -266 0z"/>
<path d="M8000 7205 c-160 -37 -221 -63 -239 -103 -7 -14 -19 -76 -28 -137
-20 -144 -24 -687 -6 -706 7 -7 39 -15 71 -17 46 -3 77 2 152 28 117 39 274
80 306 80 27 0 58 39 52 67 -5 28 -66 63 -110 63 -52 0 -179 -27 -240 -51 -78
-31 -78 -31 -78 65 0 55 4 87 13 93 6 6 49 23 95 38 67 22 85 32 97 55 20 38
6 73 -34 90 -29 12 -73 10 -140 -7 l-24 -6 6 119 c6 128 12 154 32 154 7 0 53
14 101 32 107 39 174 95 174 146 0 28 -3 32 -27 31 -16 -1 -93 -16 -173 -34z"/>
<path d="M7142 7005 c-41 -13 -84 -33 -97 -45 -60 -56 -89 -194 -106 -489 -17
-295 -7 -366 54 -405 70 -44 107 -19 107 73 0 33 3 66 6 75 3 8 35 25 71 37
136 45 299 184 354 304 59 125 59 288 1 370 -32 46 -80 81 -131 95 -62 17
-179 10 -259 -15z m191 -126 c32 -9 42 -18 59 -56 18 -40 19 -53 10 -98 -25
-123 -107 -230 -217 -285 -36 -18 -68 -31 -70 -28 -8 8 14 351 25 390 12 43
32 66 63 73 12 2 31 6 42 8 35 8 49 7 88 -4z"/>
<path d="M6642 6878 c-13 -7 -26 -26 -32 -47 -22 -84 -54 -461 -55 -636 0
-168 2 -183 23 -227 29 -59 77 -80 118 -53 38 25 45 57 38 170 -4 56 -1 235 6
398 7 162 9 312 6 332 -12 63 -52 88 -104 63z m49 -545 c13 -16 12 -17 -3 -4
-10 7 -18 15 -18 17 0 8 8 3 21 -13z"/>
<path d="M6078 6761 c-56 -18 -134 -69 -173 -113 -127 -142 -175 -281 -175
-504 0 -242 79 -386 234 -425 61 -15 154 -6 208 20 59 28 133 104 164 167 35
71 43 167 20 228 -19 51 -34 59 -75 45 -29 -10 -41 -32 -41 -79 -1 -62 -90
-189 -148 -211 -43 -16 -89 -10 -120 16 -16 13 -33 21 -37 17 -5 -4 -6 -2 -2
3 3 6 -1 35 -9 65 -20 75 -20 257 1 335 39 145 120 255 210 285 36 12 40 11
58 -11 15 -19 18 -33 13 -72 -8 -59 4 -77 50 -77 39 0 67 33 85 101 17 63 5
113 -39 161 -63 70 -119 82 -224 49z"/>
<path d="M5395 6590 c-38 -16 -104 -36 -145 -45 -117 -25 -159 -43 -175 -75
-34 -66 -58 -656 -35 -850 13 -107 24 -141 55 -170 41 -38 131 -22 390 70 33
12 71 24 85 26 91 17 123 51 79 85 -51 39 -160 35 -331 -11 -48 -13 -89 -22
-92 -19 -7 7 -25 220 -20 234 3 7 43 22 90 35 63 16 89 28 100 46 19 28 11 74
-17 100 -18 16 -25 16 -87 4 -37 -7 -73 -15 -80 -18 -18 -6 -5 344 14 375 8
13 32 27 56 34 51 13 131 53 174 85 37 29 69 85 61 108 -9 22 -41 19 -122 -14z"/>
<path d="M4391 6409 c-36 -5 -88 -18 -115 -30 -80 -33 -176 -99 -193 -132 -26
-50 -39 -434 -25 -691 14 -234 25 -274 86 -321 38 -29 53 -31 76 -10 15 14 16
33 12 158 -5 154 2 187 39 187 12 0 48 7 82 16 33 8 71 13 85 9 14 -3 68 -51
122 -105 130 -133 197 -163 285 -126 27 12 35 21 35 40 0 18 -5 26 -17 26 -9
0 -66 51 -127 113 -61 62 -124 123 -140 135 l-29 22 75 72 c58 56 84 92 114
152 37 76 39 85 39 175 0 89 -2 100 -31 151 -69 122 -205 180 -373 159z m169
-178 c71 -49 79 -167 19 -268 -19 -30 -60 -77 -91 -104 -64 -53 -240 -145
-257 -135 -15 9 -15 401 0 443 9 26 21 35 82 56 40 14 81 28 92 30 37 9 130
-5 155 -22z"/>
<path d="M9120 6374 c-327 -34 -484 -69 -1005 -226 -253 -76 -863 -270 -925
-295 -8 -3 -19 -7 -25 -9 -5 -1 -154 -51 -330 -109 -381 -127 -759 -246 -980
-308 -88 -25 -207 -59 -265 -75 -58 -17 -240 -69 -405 -117 -314 -92 -343
-100 -570 -159 -77 -21 -216 -59 -310 -85 -93 -27 -213 -58 -265 -70 -160 -37
-155 -35 -155 -56 0 -18 6 -20 59 -17 59 2 172 31 676 168 462 127 737 205
1300 369 333 97 597 181 1120 355 492 165 594 198 940 305 607 187 846 244
1115 265 183 15 187 16 183 43 -3 20 -9 22 -63 23 -33 1 -76 0 -95 -2z"/>
<path d="M9377 6373 c-13 -12 -7 -51 9 -57 28 -11 43 -6 49 14 11 34 -34 67
-58 43z"/>
<path d="M4515 7326 c-44 -12 -183 -51 -309 -86 -221 -62 -254 -76 -227 -103
13 -13 44 -7 236 46 72 20 193 53 270 74 132 36 140 39 140 63 0 33 -14 33
-110 6z"/>
<path d="M3802 7118 c-7 -7 -12 -18 -12 -25 0 -17 44 -35 65 -27 30 12 10 64
-25 64 -9 0 -21 -5 -28 -12z"/>
<path d="M3175 5715 c-55 -13 -163 -34 -240 -45 -176 -26 -175 -26 -175 -56 0
-16 6 -24 18 -24 36 -1 361 54 447 74 83 20 90 24 90 47 0 32 -18 33 -140 4z"/>
<path d="M2584 5626 c-9 -7 -15 -21 -13 -32 5 -23 51 -31 68 -11 25 31 -21 68
-55 43z"/>
<path d="M4927 6983 c-10 -10 -8 -41 3 -48 20 -12 50 6 50 31 0 18 -5 24 -23
24 -13 0 -27 -3 -30 -7z"/>
<path d="M4760 6943 c-87 -15 -643 -150 -777 -189 -39 -11 -53 -20 -53 -34 0
-10 6 -20 13 -23 8 -3 119 21 248 53 190 47 406 97 586 135 24 6 48 39 38 55
-6 10 -12 10 -55 3z"/>
<path d="M10120 5414 c-14 -3 -70 -12 -125 -20 -257 -40 -527 -111 -965 -254
-355 -115 -449 -138 -614 -148 -113 -7 -121 -8 -124 -28 -2 -18 4 -22 34 -27
114 -19 411 43 759 158 285 94 473 147 685 194 211 46 294 59 488 75 127 10
137 13 137 31 0 19 -7 20 -125 21 -69 1 -136 0 -150 -2z"/>
<path d="M10490 5391 c0 -27 4 -31 26 -31 22 0 25 4 22 28 -2 19 -9 28 -25 30
-20 3 -23 -1 -23 -27z"/>
<path d="M8860 5784 c-91 -30 -214 -71 -275 -91 -133 -43 -205 -78 -205 -98 0
-29 31 -28 108 3 42 17 154 53 247 82 158 48 250 77 318 102 19 7 27 17 27 34
0 35 -29 31 -220 -32z"/>
<path d="M8244 5546 c-11 -29 0 -51 26 -51 21 0 25 5 25 30 0 24 -5 31 -23 33
-13 2 -24 -3 -28 -12z"/>
<path d="M6457 3683 c-14 -13 -7 -43 12 -53 23 -12 56 14 47 37 -3 8 -6 17 -6
19 0 7 -46 5 -53 -3z"/>
<path d="M6314 3614 c-74 -40 -253 -110 -312 -123 -29 -6 -72 -11 -96 -11 -77
0 -107 -10 -104 -34 2 -17 11 -21 48 -23 119 -5 273 36 458 122 70 33 92 48
92 63 0 11 -7 23 -16 26 -20 8 -14 10 -70 -20z"/>
<path d="M4032 2993 c-95 -171 -115 -214 -104 -225 25 -25 48 3 129 150 69
125 83 155 73 167 -7 8 -18 15 -25 15 -7 0 -40 -48 -73 -107z"/>
<path d="M3893 2703 c-18 -7 -16 -52 3 -60 23 -9 51 23 38 44 -12 19 -23 24
-41 16z"/>
<path d="M6611 3298 c-5 -13 -18 -59 -30 -103 -24 -89 -76 -204 -121 -272 -26
-38 -29 -48 -18 -62 10 -13 10 -14 -1 -5 -10 9 -27 1 -75 -35 -69 -53 -118
-70 -227 -79 -65 -6 -74 -9 -74 -27 0 -19 7 -20 100 -20 93 0 105 2 166 32 95
47 165 126 233 262 53 105 107 296 91 321 -11 18 -35 11 -44 -12z"/>
<path d="M5934 2815 c-10 -25 4 -47 28 -43 17 2 24 11 26 31 3 23 0 27 -23 27
-14 0 -28 -7 -31 -15z"/>
<path d="M7580 10735 c-16 -19 -3 -55 20 -55 25 0 53 29 46 47 -3 8 -6 17 -6
19 0 11 -49 2 -60 -11z"/>
<path d="M3813 10614 c-4 -10 5 -39 23 -73 39 -75 321 -499 361 -543 21 -23
53 -23 53 -1 0 10 -60 105 -132 213 -73 107 -163 245 -199 305 -65 108 -92
134 -106 99z"/>
<path d="M7547 10563 c-3 -5 -27 -75 -55 -158 -28 -82 -74 -213 -103 -290
-102 -276 -209 -601 -212 -640 -1 -30 2 -40 15 -43 21 -4 20 -7 91 208 30 91
83 239 117 330 34 91 93 256 132 368 55 162 67 206 57 218 -12 15 -35 19 -42
7z"/>
<path d="M5410 10261 c-15 -28 21 -71 47 -55 23 14 28 41 13 59 -17 21 -47 19
-60 -4z"/>
<path d="M7877 10154 c-15 -15 -7 -53 13 -59 27 -8 52 12 48 39 -3 21 -46 35
-61 20z"/>
<path d="M5521 10096 c-13 -16 -4 -43 62 -191 56 -127 127 -288 212 -485 37
-85 91 -209 120 -275 30 -66 123 -280 208 -475 85 -195 161 -367 168 -382 15
-34 59 -40 59 -9 0 11 -33 95 -74 188 -41 92 -104 238 -141 323 -37 85 -100
229 -140 320 -40 91 -95 217 -123 280 -27 63 -105 241 -172 395 -149 341 -151
345 -179 311z"/>
<path d="M4300 9885 c-19 -23 -8 -50 20 -50 19 0 26 6 28 24 5 35 -26 53 -48
26z"/>
<path d="M9819 9503 c-416 -418 -581 -588 -845 -868 -93 -99 -206 -218 -251
-265 -53 -54 -83 -93 -83 -107 0 -52 41 -20 226 175 104 108 236 247 295 307
58 61 121 126 139 145 46 49 449 460 722 736 170 171 227 235 222 247 -3 9
-14 17 -23 17 -9 0 -190 -174 -402 -387z"/>
<path d="M2724 9806 c-12 -31 0 -51 31 -51 27 0 30 3 30 30 0 25 -4 30 -28 33
-17 2 -29 -2 -33 -12z"/>
<path d="M2870 9685 c-15 -18 -7 -26 215 -217 88 -75 171 -147 185 -160 13
-13 43 -39 66 -58 22 -19 110 -96 195 -171 231 -203 528 -449 543 -449 11 0
26 20 26 35 0 2 -73 65 -162 141 -90 76 -212 181 -272 234 -153 133 -393 346
-441 389 -61 55 -235 202 -281 239 -47 36 -56 38 -74 17z"/>
<path d="M6296 9215 c-9 -25 -8 -32 10 -49 23 -24 56 -3 52 32 -2 21 -9 28
-29 30 -17 2 -29 -3 -33 -13z"/>
<path d="M10292 8828 c4 -31 53 -34 53 -3 0 15 -8 21 -28 23 -25 3 -28 0 -25
-20z"/>
<path d="M10080 8724 c-25 -15 -61 -37 -80 -49 -19 -12 -96 -59 -170 -105 -74
-46 -151 -93 -170 -105 -19 -12 -106 -66 -192 -119 -87 -53 -160 -101 -164
-107 -3 -6 1 -18 9 -26 14 -14 19 -14 49 4 18 11 132 80 253 154 121 73 292
177 380 230 134 81 160 100 160 120 0 33 -22 34 -75 3z"/>
<path d="M3350 8545 c-11 -13 -11 -18 1 -30 12 -12 826 -505 834 -505 1 0 37
-21 80 -46 71 -43 78 -45 93 -30 20 20 18 22 -83 84 -44 27 -177 109 -295 182
-294 182 -579 352 -600 357 -9 2 -22 -3 -30 -12z"/>
<path d="M10900 8357 c-190 -95 -381 -192 -425 -216 -315 -173 -461 -255 -467
-264 -9 -14 1 -37 17 -37 7 0 39 14 71 32 305 163 502 265 809 419 198 99 366
186 374 194 17 17 7 45 -16 44 -10 0 -173 -78 -363 -172z"/>
<path d="M2194 8346 c-16 -43 15 -69 51 -42 16 12 18 18 9 33 -14 23 -52 29
-60 9z"/>
<path d="M2384 8305 c-11 -28 4 -41 92 -77 49 -20 177 -75 284 -121 202 -88
675 -280 768 -313 39 -13 55 -15 63 -7 23 23 -3 42 -128 91 -189 75 -290 117
-689 288 -199 85 -366 154 -373 154 -6 0 -14 -7 -17 -15z"/>
<path d="M8475 8114 c-9 -9 -14 -23 -11 -31 3 -8 6 -17 6 -19 0 -2 11 -4 24
-4 29 0 44 33 26 55 -16 19 -25 19 -45 -1z"/>
<path d="M4490 7885 c-14 -17 -4 -55 15 -55 28 0 45 13 45 35 0 33 -38 46 -60
20z"/>
<path d="M9795 7771 c-8 -26 4 -51 26 -51 21 0 43 35 35 56 -8 21 -54 18 -61
-5z"/>
<path d="M3352 4948 c-7 -7 -12 -22 -12 -35 0 -18 6 -23 24 -23 23 0 56 23 56
39 0 13 -24 31 -40 31 -9 0 -21 -5 -28 -12z"/>
<path d="M9981 4876 c-20 -24 -9 -51 19 -51 21 0 25 5 25 30 0 34 -24 45 -44
21z"/>
<path d="M3000 4737 c-217 -130 -382 -228 -533 -316 -152 -89 -197 -120 -197
-136 0 -29 33 -29 84 -1 28 16 143 83 256 151 477 284 597 355 612 360 33 13
32 65 -1 65 -9 0 -108 -56 -221 -123z"/>
<path d="M10194 4785 c-4 -8 -4 -21 -1 -27 7 -19 818 -321 840 -313 20 8 22
28 4 43 -7 6 -105 45 -217 87 -113 42 -221 82 -240 90 -130 52 -355 135 -366
135 -8 0 -17 -7 -20 -15z"/>
<path d="M9225 4520 c-12 -20 6 -47 53 -81 26 -19 158 -120 293 -225 136 -106
256 -197 268 -203 25 -14 41 -7 41 19 0 17 -32 45 -260 223 -47 36 -146 113
-220 171 -129 101 -161 119 -175 96z"/>
<path d="M8636 4454 c-32 -31 -10 -73 29 -58 17 7 30 47 20 63 -9 16 -31 13
-49 -5z"/>
<path d="M7327 4454 c-11 -11 -8 -52 3 -59 6 -3 19 -3 31 0 28 9 23 59 -6 63
-12 2 -24 0 -28 -4z"/>
<path d="M3599 4169 c-85 -73 -203 -176 -264 -229 -60 -53 -162 -141 -225
-195 -176 -152 -181 -157 -178 -179 5 -36 35 -29 90 21 81 72 173 152 269 234
105 90 220 190 236 205 7 7 71 63 143 125 129 111 150 140 104 147 -15 2 -66
-36 -175 -129z"/>
<path d="M8813 4283 c-40 -14 -18 -41 402 -485 77 -82 171 -183 209 -226 37
-42 73 -76 78 -74 5 1 7 -2 4 -6 -7 -12 28 -44 39 -35 4 5 5 3 2 -3 -6 -11 71
-99 233 -267 56 -58 80 -76 93 -72 9 4 17 15 17 24 0 14 -146 177 -399 446
-72 77 -274 294 -306 330 -158 174 -333 358 -345 364 -8 5 -21 6 -27 4z m928
-1020 c13 -16 12 -17 -3 -4 -10 7 -18 15 -18 17 0 8 8 3 21 -13z"/>
<path d="M7388 4243 c-2 -10 37 -135 88 -278 119 -335 255 -720 304 -860 21
-60 57 -162 80 -225 23 -63 61 -171 85 -240 45 -129 178 -502 190 -532 10 -25
55 -24 55 1 0 10 -16 63 -36 117 -20 55 -40 113 -46 129 -71 203 -227 648
-338 960 -76 215 -179 506 -229 648 -50 142 -96 267 -101 278 -13 24 -46 25
-52 2z"/>
<path d="M9973 3924 c-6 -16 19 -44 39 -44 15 0 20 30 8 45 -16 20 -39 19 -47
-1z"/>
<path d="M2762 3468 c-11 -14 -15 -33 -13 -61 1 -14 8 -18 34 -15 26 2 33 8
35 29 2 15 -4 34 -13 43 -20 19 -29 20 -43 4z"/>
<path d="M5181 3216 c-21 -25 -4 -58 27 -54 23 2 27 8 27 33 0 23 -5 31 -21
33 -11 2 -26 -4 -33 -12z"/>
<path d="M8693 3043 c-24 -9 -13 -44 43 -131 245 -379 277 -426 297 -430 29
-6 32 28 7 72 -13 22 -73 117 -135 211 -61 93 -126 193 -144 222 -35 53 -47
63 -68 56z"/>
<path d="M5080 2944 c-16 -37 -30 -69 -30 -71 0 -2 -22 -52 -49 -111 -27 -59
-58 -127 -69 -152 -11 -25 -59 -132 -107 -238 -48 -106 -84 -200 -81 -208 3
-8 14 -14 25 -14 24 0 31 12 110 193 32 73 109 245 171 384 65 145 110 258
107 267 -4 9 -15 16 -27 16 -15 0 -27 -16 -50 -66z"/>
<path d="M7240 2955 c0 -20 6 -66 14 -103 8 -37 29 -141 46 -232 44 -236 91
-472 96 -492 3 -11 15 -18 30 -18 19 0 24 5 24 23 0 25 -132 715 -153 802 -9
40 -17 51 -34 53 -20 3 -23 -1 -23 -33z"/>
<path d="M9107 2374 c-15 -15 -7 -53 13 -59 27 -8 52 12 48 39 -3 21 -46 35
-61 20z"/>
<path d="M7434 1946 c-11 -29 1 -61 23 -64 17 -3 26 3 33 22 5 14 7 33 4 41
-8 19 -53 20 -60 1z"/>
</g>
</svg>
